<svg width="33" height="33" viewBox="0 0 33 33" fill="none" xmlns="http://www.w3.org/2000/svg">
<circle cx="16.4286" cy="16.4286" r="15.8571" fill="#FFF59B" stroke="#1A1A1A" stroke-width="0.857143"/>
<path fill-rule="evenodd" clip-rule="evenodd" d="M12.9971 12.9968C12.825 13.5255 12.732 14.0898 12.732 14.6759C12.732 17.6696 15.1589 20.0965 18.1526 20.0965C18.7387 20.0965 19.303 20.0034 19.8317 19.8314C20.0038 19.3027 20.0968 18.7383 20.0968 18.1522C20.0968 15.1585 17.67 12.7317 14.6763 12.7317C14.0902 12.7317 13.5258 12.8247 12.9971 12.9968ZM13.4438 11.989C13.8423 11.9098 14.2545 11.8682 14.6763 11.8682C18.1469 11.8682 20.9603 14.6816 20.9603 18.1522C20.9603 18.574 20.9187 18.9862 20.8394 19.3847C22.4725 18.4509 23.5731 16.6919 23.5731 14.6759L23.5731 9.25541L18.1526 9.25541C16.1366 9.25541 14.3776 10.356 13.4438 11.989ZM12.3238 12.3234C13.255 10.0184 15.5138 8.39197 18.1526 8.39197L24.2446 8.39197C24.3506 8.39197 24.4365 8.47787 24.4365 8.58384L24.4365 14.6759C24.4365 17.3147 22.8101 19.5735 20.5051 20.5047C19.5739 22.8098 17.315 24.4362 14.6763 24.4362H8.58421C8.47824 24.4362 8.39234 24.3502 8.39234 24.2443V18.1522C8.39234 15.5135 10.0187 13.2546 12.3238 12.3234ZM11.9894 13.4434C11.9101 13.8419 11.8686 14.2541 11.8686 14.6759C11.8686 18.1465 14.682 20.9599 18.1526 20.9599C18.5744 20.9599 18.9865 20.9183 19.3851 20.8391C18.4512 22.4722 16.6923 23.5727 14.6763 23.5727H9.25578V18.1522C9.25578 16.1362 10.3563 14.3773 11.9894 13.4434Z" fill="#1A1A1A"/>
</svg>
