<svg width="887" height="434" viewBox="0 0 887 434" fill="none" xmlns="http://www.w3.org/2000/svg">
<path d="M443.5 433C687.886 433 886 336.294 886 217C886 97.7065 687.886 1 443.5 1C199.114 1 1 97.7065 1 217C1 336.294 199.114 433 443.5 433Z" stroke="#888889" stroke-opacity="0.1" stroke-width="2" stroke-linecap="round" stroke-linejoin="round"/>
<path d="M443.504 433C611.004 433 746.79 336.294 746.79 217C746.79 97.7065 611.004 1 443.504 1C276.003 1 140.217 97.7065 140.217 217C140.217 336.294 276.003 433 443.504 433Z" stroke="#888889" stroke-opacity="0.1" stroke-width="2" stroke-linecap="round" stroke-linejoin="round"/>
<path d="M443.501 433C520.386 433 582.714 336.294 582.714 217C582.714 97.7065 520.386 1 443.501 1C366.615 1 304.287 97.7065 304.287 217C304.287 336.294 366.615 433 443.501 433Z" stroke="#888889" stroke-opacity="0.1" stroke-width="2" stroke-linecap="round" stroke-linejoin="round"/>
</svg>
